<svg id="Layer_2" data-name="Layer 2" xmlns="http://www.w3.org/2000/svg" viewBox="0 0 338.62 389.99"><defs><style>.cls-1{fill:none;stroke:#000;stroke-linecap:round;stroke-miterlimit:10;stroke-width:5px;}</style></defs><title>Option 3 scale 3</title><path class="cls-1" d="M189.92,268.78a189.6,189.6,0,0,1-33.11,44.12"/><path class="cls-1" d="M212.68,178.83c0,2.1,0,4.2-.1,6.28a188.25,188.25,0,0,1-9.6,53.62"/><path class="cls-1" d="M164.6,53a188.56,188.56,0,0,1,38.39,66"/><path class="cls-1" d="M206.64,261.07a201,201,0,0,1-50.17,68"/><path class="cls-1" d="M224.24,178.83a200.1,200.1,0,0,1-11.13,66"/><path class="cls-1" d="M185.49,60.38a199.46,199.46,0,0,1,33.19,71.37"/><path class="cls-1" d="M189.09,312.69a214.38,214.38,0,0,1-29,29.41"/><path class="cls-1" d="M219.43,262.45q-4.16,9.71-9.24,18.91"/><path class="cls-1" d="M234.09,211q-1.18,7.8-2.93,15.42"/><path class="cls-1" d="M235.8,165.35c.25,6.19.5,24.46.08,29.87"/><path class="cls-1" d="M210.64,77.11a210.86,210.86,0,0,1,17.27,41.67"/><path class="cls-1" d="M194,327.12a227.31,227.31,0,0,1-28.46,27.38"/><path class="cls-1" d="M231.88,266.45q-3.91,9.26-8.6,18.09"/><path class="cls-1" d="M246.89,213.38q-1.19,7.8-2.92,15.41"/><path class="cls-1" d="M247.36,146.08a282.12,282.12,0,0,1,2.16,32.75q0,3.67-.11,7.34"/><path class="cls-1" d="M208.86,49.58a224.91,224.91,0,0,1,27.57,53.34"/><path class="cls-1" d="M205.84,338.69a245.41,245.41,0,0,1-25.13,24.72"/><path class="cls-1" d="M246.16,275.19q-3.82,8.81-8.31,17.23"/><path class="cls-1" d="M262.69,219.47a240,240,0,0,1-8.42,34.31"/><path class="cls-1" d="M265.39,166.12A383.48,383.48,0,0,1,264.7,205"/><path class="cls-1" d="M239.65,68.69a240.36,240.36,0,0,1,19,50.32c.45,1.8.89,3.6,1.3,5.4"/><path class="cls-1" d="M223.2,341.12a258.27,258.27,0,0,1-23.68,25.37"/><path class="cls-1" d="M279.59,205.11a256.1,256.1,0,0,1-10.68,51.59"/><path class="cls-1" d="M247.87,52.67a255.22,255.22,0,0,1,28.82,79.5"/><path class="cls-1" d="M255.18,34.32a272.75,272.75,0,0,1,31.9,73.76"/><path d="M83.84,174.84l5.9-24.45h7.1l-9.3,33.3h-7.1l-7.25-26.1-7.25,26.1h-7.1l-9.3-33.3h7.1l5.9,24.45,6.7-24.45h7.9Z"/><path d="M128.74,183.69h-7.25l-2.35-7h-13.7l-2.35,7H95.84l12.65-33.3h7.6ZM112.29,156l-5,15.15h10Z"/><path d="M147.69,149.79q1.25,0,2.55.12c.86.09,1.7.2,2.52.35a23.09,23.09,0,0,1,2.35.55,11.84,11.84,0,0,1,2,.76l-1,5.12a21.69,21.69,0,0,0-3.55-1,20.21,20.21,0,0,0-3.84-.37q-5.7,0-8.73,3c-2,2-3,4.89-3,8.74s1,6.76,3,8.74,4.93,3,8.73,3a20.23,20.23,0,0,0,3.84-.38,21.71,21.71,0,0,0,3.55-1l1,5.11a11,11,0,0,1-2,.77,23.09,23.09,0,0,1-2.35.55c-.82.14-1.66.26-2.52.34a24.75,24.75,0,0,1-2.55.13,20.76,20.76,0,0,1-7.6-1.3,15.77,15.77,0,0,1-5.55-3.6,15,15,0,0,1-3.4-5.45,21.28,21.28,0,0,1,0-13.8,15,15,0,0,1,3.4-5.45,15.77,15.77,0,0,1,5.55-3.6A20.55,20.55,0,0,1,147.69,149.79Z"/><path d="M59.69,200.29a15,15,0,0,1,3.25-1.45,13,13,0,0,1,4-.6,11.35,11.35,0,0,1,3.42.5,7.51,7.51,0,0,1,2.7,1.48,7.06,7.06,0,0,1,1.78,2.38,7.56,7.56,0,0,1,.65,3.2,9.77,9.77,0,0,1-.7,3.74A12.73,12.73,0,0,1,73,212.62a18.61,18.61,0,0,1-2.57,2.61c-1,.8-2,1.57-3,2.3l-2.6,1.88L62.69,221h14.6v2.7H58.19l-.55-2.1c1.56-1.23,2.94-2.3,4.12-3.2s2.36-1.82,3.53-2.75c.8-.6,1.61-1.24,2.42-1.9a17,17,0,0,0,2.23-2.18A10.92,10.92,0,0,0,71.56,209a7,7,0,0,0,.63-3,4.88,4.88,0,0,0-1.4-3.63,5.66,5.66,0,0,0-4.1-1.37,9.71,9.71,0,0,0-3,.47,17.58,17.58,0,0,0-3,1.38Z"/><path d="M106.39,211.29a15.47,15.47,0,0,1-.78,4.9,12.67,12.67,0,0,1-2.27,4.15,11,11,0,0,1-3.73,2.87,12.7,12.7,0,0,1-10.25,0,10.93,10.93,0,0,1-3.72-2.87,12.69,12.69,0,0,1-2.28-4.15,16,16,0,0,1,0-9.8,12.94,12.94,0,0,1,2.28-4.18,11,11,0,0,1,3.72-2.9,12.81,12.81,0,0,1,10.25,0,11,11,0,0,1,3.73,2.9,12.92,12.92,0,0,1,2.27,4.18A15.47,15.47,0,0,1,106.39,211.29Zm-3.35,0a14.66,14.66,0,0,0-.53-3.95,9.8,9.8,0,0,0-1.6-3.31,7.76,7.76,0,0,0-2.67-2.26,8.89,8.89,0,0,0-7.5,0A7.7,7.7,0,0,0,88.06,204a9.8,9.8,0,0,0-1.6,3.31,14.65,14.65,0,0,0-.52,3.95,14.38,14.38,0,0,0,.52,3.92,9.88,9.88,0,0,0,1.6,3.29,7.81,7.81,0,0,0,2.68,2.26,8.89,8.89,0,0,0,7.5,0,7.87,7.87,0,0,0,2.67-2.26,9.88,9.88,0,0,0,1.6-3.29A14.38,14.38,0,0,0,103,211.29Z"/><path d="M117.69,223.69v-21.4l-7,3.1-1-2.65,9.1-3.9H121v24.85Z"/><path d="M132.43,230.29a57,57,0,0,0,5.15-3.1,22.94,22.94,0,0,0,4.1-3.53,18,18,0,0,0,4.6-9.67,10.66,10.66,0,0,1-3.47,2.8,10.34,10.34,0,0,1-4.93,1.15,10.58,10.58,0,0,1-3.9-.7,8.82,8.82,0,0,1-3-1.93,8.29,8.29,0,0,1-1.9-3,10.63,10.63,0,0,1-.68-3.85,11.29,11.29,0,0,1,.73-4.08,9.66,9.66,0,0,1,2.05-3.25,9.44,9.44,0,0,1,3.2-2.15,11.09,11.09,0,0,1,4.22-.77,9.48,9.48,0,0,1,4.8,1.17,11.07,11.07,0,0,1,3.4,3,13.21,13.21,0,0,1,2,4.1,15.89,15.89,0,0,1,.67,4.53,21.06,21.06,0,0,1-1.15,7.1,20.58,20.58,0,0,1-3.25,5.92,25.81,25.81,0,0,1-5,4.83,40.51,40.51,0,0,1-6.4,3.85Zm-.75-21.95a6.93,6.93,0,0,0,1.78,5.19,6.79,6.79,0,0,0,4.92,1.71,9,9,0,0,0,4.5-1.16,11.68,11.68,0,0,0,3.4-2.82,14.89,14.89,0,0,0-.35-3.7,9.57,9.57,0,0,0-1.35-3.3,7.88,7.88,0,0,0-2.42-2.39,6.5,6.5,0,0,0-3.53-.93,6.92,6.92,0,0,0-2.92.58,6.4,6.4,0,0,0-2.18,1.58,7.22,7.22,0,0,0-1.37,2.34A8.52,8.52,0,0,0,131.68,208.34Z"/></svg>