<svg id="Layer_2" data-name="Layer 2" xmlns="http://www.w3.org/2000/svg" viewBox="0 0 338.62 346.43"><defs><style>.cls-1{fill:none;stroke:#000;stroke-linecap:round;stroke-miterlimit:10;stroke-width:3px;}</style></defs><title>Option 3 scale 2</title><path class="cls-1" d="M193.89,223.34a147.14,147.14,0,0,1-25.7,34.25"/><path class="cls-1" d="M211.57,153.5c0,1.63,0,3.26-.08,4.88A146.57,146.57,0,0,1,204,200"/><path class="cls-1" d="M174.24,55.77a146.09,146.09,0,0,1,35.95,77.54"/><path class="cls-1" d="M206.87,217.35a155.73,155.73,0,0,1-39,52.77"/><path class="cls-1" d="M220.54,153.5a155.31,155.31,0,0,1-8.64,51.26"/><path class="cls-1" d="M190.45,61.53A154.76,154.76,0,0,1,216.22,117"/><path class="cls-1" d="M193.25,257.43a165.84,165.84,0,0,1-22.52,22.83"/><path class="cls-1" d="M216.81,218.42q-3.23,7.54-7.17,14.69"/><path class="cls-1" d="M228.19,178.49q-.93,6.06-2.28,12"/><path class="cls-1" d="M229.52,143c.19,4.81.38,19,.06,23.2"/><path class="cls-1" d="M210,74.53a163.87,163.87,0,0,1,13.41,32.34"/><path class="cls-1" d="M197,268.63a176.33,176.33,0,0,1-22.1,21.27"/><path class="cls-1" d="M226.47,221.53q-3,7.18-6.67,14"/><path class="cls-1" d="M238.13,180.33q-.93,6-2.27,12"/><path class="cls-1" d="M238.49,128.07a217.25,217.25,0,0,1,1.68,25.43c0,1.91,0,3.8-.09,5.7"/><path class="cls-1" d="M208.6,53.15A175,175,0,0,1,230,94.56"/><path class="cls-1" d="M206.25,277.62a190.06,190.06,0,0,1-19.51,19.19"/><path class="cls-1" d="M237.56,228.32q-3,6.83-6.45,13.37"/><path class="cls-1" d="M250.4,185.05a187,187,0,0,1-6.54,26.64"/><path class="cls-1" d="M252.49,143.64a298.61,298.61,0,0,1-.54,30.15"/><path class="cls-1" d="M232.51,68a186.33,186.33,0,0,1,14.74,39.07c.36,1.39.7,2.79,1,4.19"/><path class="cls-1" d="M219.74,279.51a201.47,201.47,0,0,1-18.39,19.69"/><path class="cls-1" d="M263.52,173.9a198.82,198.82,0,0,1-8.3,40.06"/><path class="cls-1" d="M238.89,55.55a198,198,0,0,1,22.37,61.72"/><path class="cls-1" d="M244.56,41.3a211.61,211.61,0,0,1,30.69,89.16"/><path d="M83.84,144.69l5.9-24.45h7.1l-9.3,33.29h-7.1l-7.25-26.09-7.25,26.09h-7.1l-9.3-33.29h7.1l5.9,24.45,6.7-24.45h7.9Z"/><path d="M128.74,153.53h-7.25l-2.35-7h-13.7l-2.35,7H95.84l12.65-33.29h7.6Zm-16.45-27.69-5,15.14h10Z"/><path d="M147.69,119.64q1.25,0,2.55.12c.86.08,1.7.2,2.52.35s1.6.33,2.35.54a11.83,11.83,0,0,1,2,.77l-1,5.12a21.69,21.69,0,0,0-3.55-1,20.21,20.21,0,0,0-3.84-.37c-3.8,0-6.71,1-8.73,3s-3,4.89-3,8.74,1,6.76,3,8.73,4.93,3,8.73,3a20.21,20.21,0,0,0,3.84-.37,21.69,21.69,0,0,0,3.55-1l1,5.12a11.83,11.83,0,0,1-2,.77,23.11,23.11,0,0,1-2.35.54c-.82.15-1.66.27-2.52.35s-1.72.12-2.55.12a20.55,20.55,0,0,1-7.6-1.3,15.5,15.5,0,0,1-5.55-3.6,15,15,0,0,1-3.4-5.45,21.25,21.25,0,0,1,0-13.79,15,15,0,0,1,3.4-5.45,15.5,15.5,0,0,1,5.55-3.6A20.55,20.55,0,0,1,147.69,119.64Z"/><path d="M59.69,170.14a15,15,0,0,1,3.25-1.45,13,13,0,0,1,4-.6,11,11,0,0,1,3.42.5,7.5,7.5,0,0,1,2.7,1.47,7.26,7.26,0,0,1,1.78,2.38,7.64,7.64,0,0,1,.65,3.21,9.77,9.77,0,0,1-.7,3.74A13.12,13.12,0,0,1,73,182.47a18.55,18.55,0,0,1-2.57,2.6c-1,.8-2,1.57-3,2.31l-2.6,1.88-2.2,1.57h14.6v2.7H58.19l-.55-2.1c1.56-1.23,2.94-2.3,4.12-3.2s2.36-1.81,3.53-2.75c.8-.59,1.61-1.23,2.42-1.9a17,17,0,0,0,2.23-2.17,11.14,11.14,0,0,0,1.62-2.52,7.07,7.07,0,0,0,.63-3,4.88,4.88,0,0,0-1.4-3.63,5.61,5.61,0,0,0-4.1-1.37,9.43,9.43,0,0,0-3,.47,18.28,18.28,0,0,0-3,1.37Z"/><path d="M106.39,181.14a15.41,15.41,0,0,1-.78,4.89,12.72,12.72,0,0,1-2.27,4.16,11.22,11.22,0,0,1-3.73,2.87,12.81,12.81,0,0,1-10.25,0,11.18,11.18,0,0,1-3.72-2.87A12.74,12.74,0,0,1,83.36,186a16,16,0,0,1,0-9.8,13,13,0,0,1,2.28-4.17,10.88,10.88,0,0,1,3.72-2.9,12.81,12.81,0,0,1,10.25,0,10.92,10.92,0,0,1,3.73,2.9,13,13,0,0,1,2.27,4.17A15.53,15.53,0,0,1,106.39,181.14Zm-3.35,0a14.66,14.66,0,0,0-.53-3.95,9.8,9.8,0,0,0-1.6-3.31,7.9,7.9,0,0,0-2.67-2.27,9,9,0,0,0-7.5,0,7.84,7.84,0,0,0-2.68,2.27,9.8,9.8,0,0,0-1.6,3.31,14.65,14.65,0,0,0-.52,3.95,14.31,14.31,0,0,0,.52,3.91,9.93,9.93,0,0,0,1.6,3.3,7.92,7.92,0,0,0,2.68,2.26,8.06,8.06,0,0,0,10.17-2.26,9.93,9.93,0,0,0,1.6-3.3A14.31,14.31,0,0,0,103,181.14Z"/><path d="M117.69,193.53V172.14l-7,3.09-1-2.64,9.1-3.9H121v24.84Z"/><path d="M132.43,200.13a54.78,54.78,0,0,0,5.15-3.1,22.5,22.5,0,0,0,4.1-3.52,18.11,18.11,0,0,0,4.6-9.68,11,11,0,0,1-12.3,3.25,8.65,8.65,0,0,1-3-1.92,8.46,8.46,0,0,1-1.9-3,10.67,10.67,0,0,1-.68-3.85,11.29,11.29,0,0,1,.73-4.08,9.66,9.66,0,0,1,2.05-3.25,9.3,9.3,0,0,1,3.2-2.15,10.91,10.91,0,0,1,4.22-.77,9.48,9.48,0,0,1,4.8,1.17,10.81,10.81,0,0,1,3.4,3,13.11,13.11,0,0,1,2,4.1,15.89,15.89,0,0,1,.67,4.53,21,21,0,0,1-1.15,7.09,20.5,20.5,0,0,1-3.25,5.93,25.76,25.76,0,0,1-5,4.82,39.06,39.06,0,0,1-6.4,3.85Zm-.75-21.94a6.9,6.9,0,0,0,1.78,5.18,6.79,6.79,0,0,0,4.92,1.71,9,9,0,0,0,4.5-1.15,12,12,0,0,0,3.4-2.82,14.89,14.89,0,0,0-.35-3.7,9.49,9.49,0,0,0-1.35-3.3,7.88,7.88,0,0,0-2.42-2.39,6.5,6.5,0,0,0-3.53-.93,7.08,7.08,0,0,0-2.92.57,6.57,6.57,0,0,0-2.18,1.59,7,7,0,0,0-1.37,2.34A8.52,8.52,0,0,0,131.68,178.19Z"/></svg>