<svg id="Layer_2" data-name="Layer 2" xmlns="http://www.w3.org/2000/svg" viewBox="0 0 338.62 233.31"><defs><style>.cls-1{fill:none;stroke:#000;stroke-linecap:round;stroke-miterlimit:10;stroke-width:2px;}</style></defs><title>Option 3 scale 1</title><path class="cls-1" d="M192.07,157.56a98.27,98.27,0,0,1-17.19,22.9"/><path class="cls-1" d="M203.89,110.86c0,1.09,0,2.18,0,3.26a97.78,97.78,0,0,1-5,27.84"/><path class="cls-1" d="M178.93,45.52a97.71,97.71,0,0,1,24,51.84"/><path class="cls-1" d="M200.75,153.56a104.39,104.39,0,0,1-26,35.28"/><path class="cls-1" d="M209.89,110.86a104,104,0,0,1-5.78,34.28"/><path class="cls-1" d="M189.77,49.37A103.53,103.53,0,0,1,207,86.42"/><path class="cls-1" d="M191.64,180.35a111.45,111.45,0,0,1-15.06,15.27"/><path class="cls-1" d="M207.39,154.27q-2.16,5-4.79,9.82"/><path class="cls-1" d="M215,127.57q-.62,4.05-1.52,8"/><path class="cls-1" d="M215.89,103.86c.13,3.22.26,12.7,0,15.51"/><path class="cls-1" d="M202.83,58.06a110.24,110.24,0,0,1,9,21.63"/><path class="cls-1" d="M194.16,187.84a117.46,117.46,0,0,1-14.77,14.22"/><path class="cls-1" d="M213.85,156.35c-1.35,3.2-2.84,6.34-4.46,9.39"/><path class="cls-1" d="M221.65,128.8c-.42,2.7-.92,5.37-1.52,8"/><path class="cls-1" d="M221.89,93.86a145.68,145.68,0,0,1,1.12,17q0,1.92-.06,3.81"/><path class="cls-1" d="M201.9,43.77a116.42,116.42,0,0,1,14.32,27.68"/><path class="cls-1" d="M200.34,193.85a127.47,127.47,0,0,1-13.05,12.83"/><path class="cls-1" d="M221.27,160.89c-1.33,3-2.76,6-4.32,8.94"/><path class="cls-1" d="M229.85,132a125.16,125.16,0,0,1-4.37,17.81"/><path class="cls-1" d="M231.25,104.27a200.26,200.26,0,0,1-.36,20.16"/><path class="cls-1" d="M217.89,53.69a124.87,124.87,0,0,1,9.86,26.12c.24.93.46,1.87.68,2.8"/><path class="cls-1" d="M209.35,195.11a133.23,133.23,0,0,1-12.3,13.17"/><path class="cls-1" d="M238.62,124.5a133.41,133.41,0,0,1-5.54,26.79"/><path class="cls-1" d="M222.16,45.37a132.75,132.75,0,0,1,15,41.27"/><path class="cls-1" d="M226,35.84a141.62,141.62,0,0,1,20.52,59.62"/><path d="M83.84,96.5l5.9-24.45h7.1l-9.3,33.3h-7.1l-7.25-26.1-7.25,26.1h-7.1l-9.3-33.3h7.1l5.9,24.45,6.7-24.45h7.9Z"/><path d="M128.74,105.35h-7.25l-2.35-7h-13.7l-2.35,7H95.84l12.65-33.3h7.6Zm-16.45-27.7-5,15.15h10Z"/><path d="M147.69,71.45q1.25,0,2.55.12c.86.09,1.7.2,2.52.35s1.6.33,2.35.54a11.83,11.83,0,0,1,2,.77l-1,5.12a21.69,21.69,0,0,0-3.55-1,20.21,20.21,0,0,0-3.84-.37Q143,77,140,80c-2,2-3,4.89-3,8.74s1,6.76,3,8.73,4.93,3,8.73,3a20.23,20.23,0,0,0,3.84-.38,21.71,21.71,0,0,0,3.55-1l1,5.11a11,11,0,0,1-2,.77,23.09,23.09,0,0,1-2.35.55c-.82.14-1.66.26-2.52.34a24.75,24.75,0,0,1-2.55.13,20.76,20.76,0,0,1-7.6-1.3,15.77,15.77,0,0,1-5.55-3.6,15.05,15.05,0,0,1-3.4-5.45,21.28,21.28,0,0,1,0-13.8,15,15,0,0,1,3.4-5.45,15.77,15.77,0,0,1,5.55-3.6A20.55,20.55,0,0,1,147.69,71.45Z"/><path d="M59.69,122a15,15,0,0,1,3.25-1.45,13,13,0,0,1,4-.6,11.35,11.35,0,0,1,3.42.5,7.51,7.51,0,0,1,2.7,1.48,7.06,7.06,0,0,1,1.78,2.38,7.56,7.56,0,0,1,.65,3.2,9.77,9.77,0,0,1-.7,3.74A12.73,12.73,0,0,1,73,134.28a19.17,19.17,0,0,1-2.57,2.61c-1,.8-2,1.56-3,2.3l-2.6,1.88-2.2,1.58h14.6v2.7H58.19l-.55-2.1c1.56-1.24,2.94-2.3,4.12-3.2s2.36-1.82,3.53-2.75c.8-.6,1.61-1.24,2.42-1.9a17,17,0,0,0,2.23-2.18,10.92,10.92,0,0,0,1.62-2.52,7,7,0,0,0,.63-3,4.88,4.88,0,0,0-1.4-3.63,5.66,5.66,0,0,0-4.1-1.37,9.71,9.71,0,0,0-3,.47,17.58,17.58,0,0,0-3,1.38Z"/><path d="M106.39,133a15.47,15.47,0,0,1-.78,4.9,12.67,12.67,0,0,1-2.27,4.15,11,11,0,0,1-3.73,2.87,12.7,12.7,0,0,1-10.25,0A10.93,10.93,0,0,1,85.64,142a12.69,12.69,0,0,1-2.28-4.15,16,16,0,0,1,0-9.8,12.94,12.94,0,0,1,2.28-4.18,11,11,0,0,1,3.72-2.9,12.81,12.81,0,0,1,10.25,0,11,11,0,0,1,3.73,2.9,12.92,12.92,0,0,1,2.27,4.18A15.42,15.42,0,0,1,106.39,133ZM103,133a14.66,14.66,0,0,0-.53-3.95,9.8,9.8,0,0,0-1.6-3.31,7.76,7.76,0,0,0-2.67-2.26,8.89,8.89,0,0,0-7.5,0,7.7,7.7,0,0,0-2.68,2.26,9.8,9.8,0,0,0-1.6,3.31,14.65,14.65,0,0,0-.52,3.95,14.38,14.38,0,0,0,.52,3.92,9.88,9.88,0,0,0,1.6,3.29,7.81,7.81,0,0,0,2.68,2.26,8.89,8.89,0,0,0,7.5,0,7.87,7.87,0,0,0,2.67-2.26,9.88,9.88,0,0,0,1.6-3.29A14.38,14.38,0,0,0,103,133Z"/><path d="M117.69,145.35V124l-7,3.1-1-2.65,9.1-3.9H121v24.85Z"/><path d="M132.43,152a57,57,0,0,0,5.15-3.1,22.94,22.94,0,0,0,4.1-3.53,18,18,0,0,0,4.6-9.67,10.66,10.66,0,0,1-3.47,2.8,10.45,10.45,0,0,1-4.93,1.15,10.58,10.58,0,0,1-3.9-.7,8.82,8.82,0,0,1-3-1.93,8.29,8.29,0,0,1-1.9-3,10.63,10.63,0,0,1-.68-3.85,11.29,11.29,0,0,1,.73-4.08,9.66,9.66,0,0,1,2.05-3.25,9.44,9.44,0,0,1,3.2-2.15,11.09,11.09,0,0,1,4.22-.77,9.48,9.48,0,0,1,4.8,1.17,11.07,11.07,0,0,1,3.4,3,13.21,13.21,0,0,1,2,4.1,15.89,15.89,0,0,1,.67,4.53,21.11,21.11,0,0,1-1.15,7.1,20.58,20.58,0,0,1-3.25,5.92,25.81,25.81,0,0,1-5,4.83,40.51,40.51,0,0,1-6.4,3.85ZM131.68,130a6.93,6.93,0,0,0,1.78,5.19,6.79,6.79,0,0,0,4.92,1.71,9,9,0,0,0,4.5-1.16,11.68,11.68,0,0,0,3.4-2.82,14.89,14.89,0,0,0-.35-3.7,9.49,9.49,0,0,0-1.35-3.3,7.88,7.88,0,0,0-2.42-2.39,6.5,6.5,0,0,0-3.53-.93,6.92,6.92,0,0,0-2.92.58,6.4,6.4,0,0,0-2.18,1.58,7.11,7.11,0,0,0-1.37,2.34A8.52,8.52,0,0,0,131.68,130Z"/></svg>