<svg version="1.1" id="ntnu-logo-english" xmlns="http://www.w3.org/2000/svg" xmlns:xlink="http://www.w3.org/1999/xlink" x="0px"
	 y="0px" width="335.72px" height="117.49px" viewBox="0 0 335.72 117.49" enable-background="new 0 0 335.72 117.49"
	 xml:space="preserve">
<g id="tagline">
	<g id="norwegian">
		<path id="n_4_" fill="#FFFFFF" d="M76.66,84.479h-2.27L65.03,70.1h-0.09c0.12,1.691,0.19,3.231,0.19,4.642v9.738h-1.84V67.35h2.25
			l9.34,14.32h0.09c-0.02-0.21-0.05-0.889-0.11-2.03c-0.06-1.139-0.07-1.96-0.06-2.46v-9.83h1.86V84.479z"/>
		<path id="o_3_" fill="#FFFFFF" d="M92.17,78.05c0,2.091-0.53,3.73-1.58,4.9s-2.51,1.76-4.37,1.76c-1.15,0-2.17-0.27-3.06-0.81
			c-0.89-0.54-1.58-1.311-2.06-2.32c-0.48-1.009-0.73-2.189-0.73-3.54c0-2.09,0.52-3.719,1.57-4.89c1.05-1.17,2.5-1.75,4.36-1.75
			c1.8,0,3.22,0.6,4.28,1.79C91.64,74.38,92.17,76.01,92.17,78.05 M82.38,78.05c0,1.641,0.33,2.891,0.98,3.75
			c0.65,0.86,1.62,1.29,2.89,1.29s2.24-0.43,2.9-1.279c0.66-0.851,0.99-2.11,0.99-3.761c0-1.63-0.33-2.869-0.99-3.72
			c-0.66-0.85-1.63-1.27-2.92-1.27c-1.27,0-2.23,0.42-2.88,1.25C82.7,75.141,82.38,76.391,82.38,78.05"/>
		<path id="r_1_" fill="#FFFFFF" d="M101.44,71.41c0.57,0,1.08,0.051,1.54,0.141l-0.27,1.799c-0.53-0.12-1-0.179-1.41-0.179
			c-1.04,0-1.93,0.42-2.67,1.269c-0.74,0.852-1.11,1.891-1.11,3.151v6.889h-1.95V71.64h1.61l0.22,2.38h0.09
			c0.48-0.839,1.05-1.479,1.72-1.929C99.88,71.64,100.63,71.41,101.44,71.41"/>
		<path id="w" fill="#FFFFFF" d="M115.86,84.479l-2.36-7.54c-0.15-0.46-0.43-1.51-0.83-3.14h-0.09c-0.31,1.37-0.59,2.42-0.82,3.16
			l-2.43,7.51h-2.25l-3.5-12.84h2.04c0.83,3.23,1.46,5.68,1.89,7.371c0.43,1.688,0.68,2.82,0.74,3.41h0.09
			c0.09-0.451,0.22-1.021,0.42-1.731c0.2-0.71,0.36-1.269,0.5-1.679l2.36-7.371h2.11l2.3,7.371c0.44,1.339,0.73,2.469,0.89,3.389
			h0.09c0.03-0.279,0.12-0.71,0.25-1.3c0.13-0.589,0.95-3.74,2.44-9.46h2.02l-3.55,12.84h-2.31V84.479z"/>
		<path id="e_4_" fill="#FFFFFF" d="M129.47,84.721c-1.9,0-3.4-0.58-4.49-1.73c-1.09-1.149-1.65-2.761-1.65-4.819
			c0-2.07,0.51-3.711,1.53-4.931c1.02-1.221,2.39-1.83,4.11-1.83c1.61,0,2.88,0.529,3.82,1.59s1.41,2.46,1.41,4.189v1.231h-8.85
			c0.04,1.51,0.42,2.648,1.14,3.43c0.72,0.78,1.74,1.169,3.05,1.169c1.38,0,2.75-0.29,4.1-0.87v1.731
			c-0.69,0.3-1.34,0.51-1.95,0.639C131.08,84.649,130.33,84.721,129.47,84.721 M128.94,73.04c-1.03,0-1.85,0.341-2.47,1.011
			c-0.62,0.67-0.97,1.599-1.08,2.79h6.71c0-1.231-0.27-2.17-0.82-2.821C130.73,73.37,129.96,73.04,128.94,73.04"/>
		<path id="g_1_" fill="#FFFFFF" d="M148.02,71.641v1.229l-2.38,0.279c0.22,0.271,0.41,0.631,0.59,1.071
			c0.18,0.439,0.26,0.939,0.26,1.489c0,1.261-0.43,2.261-1.29,3.011c-0.86,0.75-2.04,1.12-3.54,1.12c-0.38,0-0.74-0.03-1.08-0.091
			c-0.83,0.439-1.24,0.99-1.24,1.649c0,0.351,0.14,0.611,0.43,0.781s0.79,0.25,1.49,0.25h2.27c1.39,0,2.46,0.29,3.21,0.88
			c0.75,0.589,1.12,1.439,1.12,2.549c0,1.421-0.57,2.511-1.71,3.25c-1.14,0.741-2.8,1.121-4.99,1.121c-1.68,0-2.97-0.31-3.88-0.94
			c-0.91-0.63-1.37-1.51-1.37-2.649c0-0.781,0.25-1.46,0.75-2.031c0.5-0.569,1.2-0.96,2.11-1.159c-0.33-0.149-0.6-0.38-0.83-0.689
			c-0.23-0.311-0.33-0.681-0.33-1.09c0-0.471,0.12-0.881,0.38-1.231c0.26-0.349,0.64-0.689,1.18-1.019
			c-0.66-0.271-1.21-0.74-1.62-1.391c-0.41-0.649-0.63-1.41-0.63-2.25c0-1.41,0.42-2.49,1.27-3.25s2.04-1.14,3.59-1.14
			c0.67,0,1.28,0.08,1.82,0.229h4.42V71.641z M137.78,86.641c0,0.7,0.29,1.219,0.88,1.58c0.59,0.359,1.43,0.54,2.52,0.54
			c1.63,0,2.84-0.24,3.63-0.73s1.18-1.149,1.18-1.99c0-0.699-0.21-1.181-0.64-1.449c-0.43-0.271-1.24-0.401-2.43-0.401h-2.33
			c-0.88,0-1.57,0.21-2.06,0.63C138.04,85.24,137.78,85.851,137.78,86.641 M138.83,75.75c0,0.899,0.25,1.58,0.76,2.04
			c0.51,0.46,1.21,0.689,2.12,0.689c1.9,0,2.85-0.919,2.85-2.77c0-1.93-0.96-2.89-2.88-2.89c-0.91,0-1.62,0.25-2.11,0.74
			C139.08,74.051,138.83,74.79,138.83,75.75"/>
		<path id="i_3_" fill="#FFFFFF" d="M150.49,68.16c0-0.45,0.11-0.77,0.33-0.979c0.22-0.21,0.49-0.311,0.82-0.311
			c0.31,0,0.58,0.11,0.81,0.32s0.34,0.54,0.34,0.97s-0.11,0.76-0.34,0.98c-0.23,0.22-0.5,0.319-0.81,0.319
			c-0.33,0-0.6-0.109-0.82-0.319C150.6,68.931,150.49,68.601,150.49,68.16 M152.6,84.48h-1.95v-12.84h1.95V84.48z"/>
		<path id="a_1_" fill="#FFFFFF" d="M164.62,84.479l-0.39-1.83h-0.09c-0.64,0.802-1.28,1.352-1.92,1.632
			c-0.64,0.278-1.43,0.43-2.38,0.43c-1.27,0-2.27-0.33-2.99-0.981c-0.72-0.648-1.08-1.59-1.08-2.8c0-2.59,2.07-3.95,6.22-4.08
			l2.18-0.068v-0.802c0-1.01-0.22-1.75-0.65-2.229c-0.43-0.481-1.13-0.72-2.08-0.72c-1.07,0-2.28,0.328-3.63,0.979l-0.6-1.49
			c0.63-0.34,1.33-0.608,2.08-0.809c0.75-0.201,1.51-0.29,2.27-0.29c1.53,0,2.67,0.339,3.4,1.019c0.73,0.682,1.11,1.771,1.11,3.271
			v8.769H164.62z M160.23,83.109c1.21,0,2.16-0.328,2.85-1c0.69-0.67,1.04-1.59,1.04-2.789v-1.159l-1.95,0.08
			c-1.55,0.05-2.66,0.29-3.35,0.72c-0.69,0.429-1.03,1.089-1.03,1.99c0,0.698,0.21,1.238,0.64,1.608
			C158.86,82.93,159.46,83.109,160.23,83.109"/>
		<path id="n_5_" fill="#FFFFFF" d="M178.86,84.479v-8.31c0-1.049-0.24-1.83-0.71-2.339c-0.471-0.51-1.221-0.771-2.24-0.771
			c-1.34,0-2.33,0.36-2.95,1.091c-0.62,0.729-0.94,1.931-0.94,3.601v6.74h-1.949V71.64h1.58l0.319,1.761h0.09
			c0.4-0.631,0.96-1.119,1.681-1.471c0.72-0.349,1.52-0.519,2.399-0.519c1.551,0,2.71,0.37,3.491,1.12
			c0.779,0.75,1.169,1.938,1.169,3.579v8.381h-1.939V84.479z"/>
	</g>
	<g id="university">
		<path id="y_1_" fill="#FFFFFF" d="M204.27,67.35V78.44c0,1.949-0.59,3.489-1.771,4.609c-1.179,1.12-2.799,1.681-4.859,1.681
			c-2.06,0-3.659-0.561-4.79-1.69c-1.13-1.129-1.689-2.669-1.689-4.64V67.35h1.99v11.182c0,1.429,0.39,2.528,1.17,3.289
			c0.779,0.76,1.929,1.149,3.449,1.149c1.45,0,2.561-0.38,3.341-1.149c0.779-0.771,1.17-1.869,1.17-3.311V67.35H204.27z"/>
		<path id="t_1_" fill="#FFFFFF" d="M217.3,84.479v-8.31c0-1.049-0.24-1.83-0.71-2.339c-0.47-0.51-1.22-0.771-2.24-0.771
			c-1.34,0-2.33,0.36-2.949,1.091c-0.62,0.729-0.94,1.931-0.94,3.601v6.74h-1.95V71.64h1.58l0.32,1.761h0.09
			c0.4-0.631,0.96-1.119,1.68-1.471c0.721-0.349,1.521-0.519,2.4-0.519c1.55,0,2.71,0.37,3.49,1.12
			c0.779,0.75,1.17,1.938,1.17,3.579v8.381h-1.94V84.479z"/>
		<path id="i_1_" fill="#FFFFFF" d="M223.08,68.16c0-0.45,0.11-0.77,0.33-0.979s0.49-0.311,0.82-0.311c0.31,0,0.579,0.11,0.81,0.32
			c0.229,0.21,0.34,0.54,0.34,0.97s-0.11,0.76-0.34,0.98c-0.23,0.22-0.5,0.319-0.81,0.319c-0.33,0-0.601-0.109-0.82-0.319
			S223.08,68.601,223.08,68.16 M225.19,84.48h-1.95v-12.84h1.95V84.48z"/>
		<path id="s_1_" fill="#FFFFFF" d="M232.12,84.479l-4.88-12.84h2.09l2.769,7.62c0.621,1.781,0.991,2.941,1.102,3.47h0.09
			c0.09-0.409,0.36-1.27,0.809-2.568c0.451-1.301,1.481-4.142,3.081-8.511h2.09l-4.88,12.841h-2.27V84.479z"/>
		<path id="r" fill="#FFFFFF" d="M246.76,84.721c-1.899,0-3.399-0.58-4.49-1.73c-1.09-1.149-1.649-2.761-1.649-4.819
			c0-2.07,0.51-3.711,1.53-4.931c1.02-1.221,2.39-1.83,4.109-1.83c1.61,0,2.88,0.529,3.82,1.59c0.939,1.061,1.41,2.46,1.41,4.189
			v1.231h-8.851c0.04,1.51,0.42,2.648,1.141,3.43c0.72,0.78,1.739,1.169,3.05,1.169c1.38,0,2.75-0.29,4.1-0.87v1.731
			c-0.689,0.3-1.34,0.51-1.949,0.639C248.37,84.649,247.63,84.721,246.76,84.721 M246.23,73.04c-1.03,0-1.851,0.341-2.471,1.011
			s-0.97,1.599-1.08,2.79h6.71c0-1.231-0.27-2.17-0.819-2.821C248.02,73.37,247.25,73.04,246.23,73.04"/>
		<path id="e_3_" fill="#FFFFFF" d="M260.66,71.41c0.57,0,1.08,0.051,1.54,0.141l-0.271,1.799c-0.529-0.12-1-0.179-1.41-0.179
			c-1.039,0-1.93,0.42-2.67,1.269c-0.739,0.852-1.109,1.891-1.109,3.151v6.889h-1.95V71.64h1.61l0.22,2.38h0.09
			c0.48-0.839,1.05-1.479,1.72-1.929C259.1,71.64,259.85,71.41,260.66,71.41"/>
		<path id="v" fill="#FFFFFF" d="M272.88,80.979c0,1.2-0.45,2.12-1.34,2.771c-0.889,0.649-2.139,0.969-3.75,0.969
			c-1.7,0-3.03-0.269-3.98-0.809V82.11c0.62,0.31,1.28,0.56,1.99,0.739c0.71,0.182,1.391,0.271,2.04,0.271
			c1.021,0,1.8-0.161,2.34-0.491S271,81.81,271,81.15c0-0.5-0.22-0.931-0.65-1.279c-0.43-0.352-1.279-0.781-2.54-1.261
			c-1.199-0.449-2.04-0.829-2.55-1.171c-0.51-0.34-0.88-0.71-1.12-1.13c-0.238-0.42-0.37-0.93-0.37-1.51
			c0-1.049,0.431-1.87,1.28-2.479c0.852-0.61,2.021-0.909,3.5-0.909c1.38,0,2.73,0.278,4.05,0.84l-0.689,1.58
			c-1.29-0.531-2.46-0.8-3.5-0.8c-0.92,0-1.62,0.139-2.09,0.429c-0.471,0.291-0.7,0.69-0.7,1.201c0,0.34,0.09,0.639,0.26,0.88
			c0.17,0.24,0.46,0.469,0.851,0.688c0.39,0.222,1.14,0.54,2.25,0.95c1.52,0.55,2.55,1.111,3.09,1.681S272.88,80.13,272.88,80.979"
			/>
		<path id="i_2_" fill="#FFFFFF" d="M275.88,68.16c0-0.45,0.11-0.77,0.33-0.979s0.49-0.311,0.82-0.311c0.31,0,0.58,0.11,0.81,0.32
			c0.23,0.21,0.34,0.54,0.34,0.97s-0.109,0.76-0.34,0.98c-0.229,0.22-0.5,0.319-0.81,0.319c-0.33,0-0.601-0.109-0.82-0.319
			S275.88,68.601,275.88,68.16 M277.99,84.48h-1.95v-12.84h1.95V84.48z"/>
		<path id="n_3_" fill="#FFFFFF" d="M286.26,83.109c0.34,0,0.681-0.028,1-0.078c0.32-0.052,0.57-0.102,0.76-0.16v1.488
			c-0.21,0.102-0.52,0.19-0.93,0.25c-0.41,0.062-0.78,0.102-1.109,0.102c-2.48,0-3.73-1.312-3.73-3.93V73.14h-1.84v-0.938
			l1.84-0.812l0.82-2.74h1.12v2.981h3.729v1.509h-3.729v7.562c0,0.769,0.18,1.369,0.55,1.778
			C285.11,82.89,285.62,83.109,286.26,83.109"/>
		<path id="u" fill="#FFFFFF" d="M288.55,71.64h2.09l2.811,7.32c0.62,1.67,1,2.88,1.149,3.62h0.091c0.1-0.4,0.31-1.08,0.64-2.04
			s1.38-3.93,3.18-8.9h2.09l-5.52,14.62c-0.551,1.45-1.19,2.471-1.92,3.08c-0.73,0.611-1.631,0.91-2.69,0.91
			c-0.59,0-1.18-0.07-1.76-0.2v-1.559c0.43,0.089,0.91,0.139,1.44,0.139c1.34,0,2.29-0.75,2.859-2.25l0.71-1.83L288.55,71.64z"/>
	</g>
	<g id="of">
		<path id="o_2_" fill="#FFFFFF" d="M320,78.05c0,2.091-0.53,3.73-1.58,4.9s-2.51,1.76-4.37,1.76c-1.149,0-2.17-0.27-3.06-0.81
			c-0.891-0.54-1.58-1.311-2.061-2.32c-0.48-1.009-0.73-2.189-0.73-3.54c0-2.09,0.521-3.719,1.57-4.89
			c1.051-1.17,2.5-1.75,4.36-1.75c1.8,0,3.22,0.6,4.28,1.79C319.47,74.38,320,76.01,320,78.05 M310.22,78.05
			c0,1.641,0.33,2.891,0.979,3.75c0.65,0.86,1.621,1.29,2.891,1.29c1.271,0,2.24-0.43,2.9-1.279c0.66-0.851,0.99-2.11,0.99-3.761
			c0-1.63-0.33-2.869-0.99-3.72c-0.66-0.85-1.63-1.27-2.92-1.27c-1.271,0-2.23,0.42-2.88,1.25
			C310.54,75.141,310.22,76.391,310.22,78.05"/>
		<path id="f" fill="#FFFFFF" d="M329.2,73.149h-3.271v11.33h-1.948v-11.33h-2.302v-0.88l2.302-0.698v-0.712
			c0-3.158,1.38-4.729,4.14-4.729c0.68,0,1.479,0.14,2.39,0.411l-0.5,1.559c-0.75-0.24-1.39-0.358-1.92-0.358
			c-0.729,0-1.28,0.238-1.63,0.729c-0.35,0.491-0.531,1.271-0.531,2.352v0.828h3.271V73.149z"/>
	</g>
	<g id="science">
		<path id="s" fill="#FFFFFF" d="M72.95,106.43c0,1.511-0.55,2.681-1.64,3.53c-1.09,0.851-2.58,1.271-4.45,1.271
			c-2.03,0-3.59-0.261-4.69-0.79v-1.92c0.7,0.3,1.47,0.529,2.3,0.699s1.65,0.261,2.46,0.261c1.33,0,2.33-0.25,3-0.761
			c0.67-0.51,1.01-1.21,1.01-2.1c0-0.589-0.12-1.08-0.36-1.46c-0.24-0.379-0.64-0.73-1.2-1.05c-0.56-0.32-1.41-0.681-2.55-1.09
			c-1.59-0.569-2.73-1.25-3.42-2.029c-0.68-0.781-1.03-1.801-1.03-3.062c0-1.319,0.5-2.369,1.49-3.148
			c0.99-0.781,2.3-1.171,3.94-1.171c1.7,0,3.27,0.31,4.7,0.939l-0.62,1.731c-1.41-0.591-2.79-0.892-4.12-0.892
			c-1.05,0-1.88,0.23-2.47,0.682c-0.59,0.449-0.89,1.079-0.89,1.889c0,0.59,0.11,1.08,0.33,1.46c0.22,0.38,0.59,0.73,1.11,1.04
			c0.52,0.311,1.31,0.67,2.38,1.05c1.8,0.641,3.03,1.33,3.71,2.062C72.62,104.3,72.95,105.25,72.95,106.43"/>
		<path id="c_2_" fill="#FFFFFF" d="M81.29,111.22c-1.86,0-3.3-0.569-4.32-1.72c-1.02-1.149-1.53-2.759-1.53-4.86
			c0-2.148,0.52-3.81,1.55-4.979c1.03-1.169,2.51-1.76,4.42-1.76c0.62,0,1.23,0.069,1.85,0.2c0.62,0.13,1.1,0.289,1.45,0.47
			l-0.6,1.649c-0.43-0.17-0.9-0.31-1.41-0.43c-0.51-0.12-0.96-0.17-1.35-0.17c-2.61,0-3.91,1.661-3.91,4.99
			c0,1.58,0.32,2.79,0.96,3.631c0.64,0.839,1.58,1.269,2.83,1.269c1.07,0,2.17-0.229,3.29-0.689v1.72
			C83.68,111,82.6,111.22,81.29,111.22"/>
		<path id="i" fill="#FFFFFF" d="M87.42,94.66c0-0.45,0.11-0.77,0.33-0.979s0.49-0.311,0.82-0.311c0.31,0,0.58,0.11,0.81,0.32
			s0.34,0.54,0.34,0.97s-0.11,0.76-0.34,0.98c-0.23,0.22-0.5,0.319-0.81,0.319c-0.33,0-0.6-0.109-0.82-0.319
			S87.42,95.101,87.42,94.66 M89.53,110.98h-1.95v-12.84h1.95V110.98z"/>
		<path id="e_2_" fill="#FFFFFF" d="M99.08,111.221c-1.9,0-3.4-0.58-4.49-1.73c-1.09-1.149-1.65-2.761-1.65-4.819
			c0-2.07,0.51-3.711,1.53-4.931c1.02-1.221,2.39-1.83,4.11-1.83c1.61,0,2.88,0.529,3.82,1.59s1.41,2.46,1.41,4.189v1.231h-8.85
			c0.04,1.51,0.42,2.648,1.14,3.43c0.72,0.78,1.74,1.169,3.05,1.169c1.38,0,2.75-0.29,4.1-0.87v1.731
			c-0.69,0.3-1.34,0.51-1.95,0.639C100.69,111.149,99.95,111.221,99.08,111.221 M98.55,99.54c-1.03,0-1.85,0.341-2.47,1.011
			c-0.62,0.67-0.97,1.599-1.08,2.79h6.71c0-1.231-0.27-2.17-0.82-2.821C100.34,99.87,99.57,99.54,98.55,99.54"/>
		<path id="n_2_" fill="#FFFFFF" d="M115.91,110.979v-8.31c0-1.049-0.24-1.83-0.71-2.339c-0.47-0.51-1.22-0.771-2.24-0.771
			c-1.34,0-2.33,0.36-2.95,1.091c-0.62,0.729-0.94,1.931-0.94,3.601v6.74h-1.95V98.14h1.58l0.32,1.761h0.09
			c0.4-0.631,0.96-1.119,1.68-1.471c0.72-0.349,1.52-0.519,2.4-0.519c1.55,0,2.71,0.37,3.49,1.12s1.17,1.938,1.17,3.579v8.381h-1.94
			V110.979z"/>
		<path id="c_1_" fill="#FFFFFF" d="M126.98,111.22c-1.86,0-3.3-0.569-4.32-1.72c-1.02-1.149-1.53-2.759-1.53-4.86
			c0-2.148,0.52-3.81,1.55-4.979c1.03-1.169,2.51-1.76,4.42-1.76c0.62,0,1.23,0.069,1.85,0.2c0.62,0.13,1.1,0.289,1.45,0.47
			l-0.6,1.649c-0.43-0.17-0.9-0.31-1.41-0.43c-0.51-0.11-0.96-0.17-1.35-0.17c-2.61,0-3.91,1.661-3.91,4.99
			c0,1.58,0.32,2.79,0.96,3.631c0.64,0.839,1.58,1.269,2.83,1.269c1.07,0,2.17-0.229,3.29-0.689v1.72
			C129.37,111,128.29,111.22,126.98,111.22"/>
		<path id="e_1_" fill="#FFFFFF" d="M138.7,111.221c-1.9,0-3.4-0.58-4.49-1.73c-1.09-1.149-1.65-2.761-1.65-4.819
			c0-2.07,0.51-3.711,1.53-4.931c1.02-1.221,2.39-1.83,4.11-1.83c1.61,0,2.88,0.529,3.82,1.59s1.41,2.46,1.41,4.189v1.231h-8.85
			c0.04,1.51,0.42,2.648,1.14,3.43c0.72,0.78,1.74,1.169,3.05,1.169c1.38,0,2.75-0.29,4.1-0.87v1.731
			c-0.69,0.3-1.34,0.51-1.95,0.639C140.31,111.149,139.57,111.221,138.7,111.221 M138.17,99.54c-1.03,0-1.85,0.341-2.47,1.011
			c-0.62,0.67-0.97,1.599-1.08,2.79h6.71c0-1.231-0.27-2.17-0.82-2.821C139.96,99.87,139.19,99.54,138.17,99.54"/>
	</g>
	<g id="and">
		<path id="a" fill="#FFFFFF" d="M160.87,110.979l-0.39-1.83h-0.09c-0.64,0.802-1.28,1.352-1.92,1.632
			c-0.64,0.278-1.43,0.43-2.38,0.43c-1.27,0-2.27-0.33-2.99-0.981c-0.72-0.648-1.08-1.59-1.08-2.8c0-2.59,2.07-3.95,6.22-4.08
			l2.18-0.068v-0.802c0-1.01-0.22-1.75-0.65-2.229c-0.43-0.481-1.13-0.72-2.08-0.72c-1.07,0-2.28,0.328-3.63,0.979l-0.6-1.49
			c0.63-0.34,1.33-0.608,2.08-0.809c0.75-0.201,1.51-0.29,2.27-0.29c1.53,0,2.67,0.339,3.4,1.019c0.73,0.682,1.11,1.771,1.11,3.271
			v8.769H160.87z M156.48,109.609c1.21,0,2.16-0.328,2.85-1c0.69-0.67,1.04-1.59,1.04-2.789v-1.159l-1.95,0.08
			c-1.55,0.05-2.66,0.29-3.35,0.72c-0.69,0.429-1.03,1.089-1.03,1.99c0,0.698,0.21,1.238,0.64,1.608
			C155.11,109.43,155.71,109.609,156.48,109.609"/>
		<path id="n_1_" fill="#FFFFFF" d="M175.11,110.979v-8.31c0-1.049-0.24-1.83-0.71-2.339c-0.471-0.51-1.221-0.771-2.24-0.771
			c-1.34,0-2.33,0.36-2.95,1.091c-0.62,0.729-0.939,1.931-0.939,3.601v6.74h-1.951V98.14h1.581l0.32,1.761h0.09
			c0.399-0.631,0.959-1.119,1.68-1.471c0.72-0.349,1.52-0.519,2.399-0.519c1.551,0,2.71,0.37,3.491,1.12
			c0.779,0.75,1.169,1.938,1.169,3.579v8.381h-1.939V110.979z"/>
		<path id="d" fill="#FFFFFF" d="M189.8,109.261h-0.109c-0.9,1.3-2.24,1.96-4.03,1.96c-1.68,0-2.99-0.57-3.92-1.721
			c-0.931-1.149-1.4-2.779-1.4-4.899s0.47-3.76,1.41-4.931c0.94-1.17,2.24-1.76,3.91-1.76c1.74,0,3.08,0.63,4.01,1.9h0.15
			l-0.08-0.931l-0.05-0.899v-5.23h1.949v18.23h-1.58L189.8,109.261z M185.91,109.591c1.33,0,2.29-0.36,2.89-1.08
			c0.601-0.721,0.9-1.891,0.9-3.5v-0.41c0-1.82-0.3-3.12-0.91-3.9c-0.609-0.78-1.57-1.17-2.9-1.17c-1.14,0-2.01,0.44-2.62,1.33
			c-0.609,0.89-0.909,2.14-0.909,3.76c0,1.641,0.3,2.88,0.899,3.71C183.86,109.16,184.74,109.591,185.91,109.591"/>
	</g>
	<g id="technology">
		<polygon id="t" fill="#FFFFFF" points="207.56,110.979 205.57,110.979 205.57,95.621 200.14,95.621 200.14,93.85 212.98,93.85 
			212.98,95.621 207.55,95.621 207.55,110.979 		"/>
		<path id="e" fill="#FFFFFF" d="M220.7,111.221c-1.9,0-3.4-0.58-4.49-1.73c-1.09-1.149-1.65-2.761-1.65-4.819
			c0-2.07,0.511-3.711,1.53-4.931c1.021-1.221,2.391-1.83,4.11-1.83c1.609,0,2.88,0.529,3.819,1.59c0.94,1.061,1.41,2.46,1.41,4.189
			v1.231h-8.85c0.04,1.51,0.42,2.648,1.14,3.43c0.721,0.78,1.74,1.169,3.05,1.169c1.381,0,2.75-0.29,4.101-0.87v1.731
			c-0.69,0.3-1.34,0.51-1.95,0.639C222.31,111.149,221.57,111.221,220.7,111.221 M220.17,99.54c-1.03,0-1.85,0.341-2.47,1.011
			s-0.97,1.599-1.08,2.79h6.71c0-1.231-0.271-2.17-0.82-2.821C221.96,99.87,221.19,99.54,220.17,99.54"/>
		<path id="c" fill="#FFFFFF" d="M233.87,111.22c-1.86,0-3.3-0.569-4.32-1.72c-1.02-1.149-1.53-2.759-1.53-4.86
			c0-2.148,0.521-3.81,1.551-4.979c1.028-1.169,2.51-1.76,4.42-1.76c0.62,0,1.229,0.069,1.85,0.2c0.62,0.13,1.101,0.289,1.45,0.47
			l-0.6,1.649c-0.431-0.17-0.9-0.31-1.41-0.43c-0.511-0.12-0.96-0.17-1.351-0.17c-2.609,0-3.91,1.661-3.91,4.99
			c0,1.58,0.32,2.79,0.961,3.631c0.64,0.839,1.579,1.269,2.829,1.269c1.07,0,2.171-0.229,3.289-0.689v1.72
			C236.26,111,235.17,111.22,233.87,111.22"/>
		<path id="h" fill="#FFFFFF" d="M248.95,110.979v-8.31c0-1.049-0.24-1.83-0.71-2.339c-0.471-0.51-1.221-0.771-2.24-0.771
			c-1.35,0-2.34,0.37-2.96,1.102c-0.62,0.729-0.93,1.938-0.93,3.608v6.71h-1.95V92.751h1.95v5.519c0,0.66-0.03,1.21-0.091,1.65h0.12
			c0.38-0.62,0.931-1.1,1.63-1.46c0.7-0.36,1.511-0.53,2.421-0.53c1.569,0,2.75,0.37,3.529,1.12c0.78,0.75,1.181,1.93,1.181,3.561
			v8.381h-1.95V110.979z"/>
		<path id="n" fill="#FFFFFF" d="M263.68,110.979v-8.31c0-1.049-0.239-1.83-0.71-2.339c-0.47-0.51-1.22-0.771-2.239-0.771
			c-1.341,0-2.33,0.36-2.95,1.091c-0.62,0.729-0.94,1.931-0.94,3.601v6.74h-1.95V98.14h1.58l0.32,1.761h0.09
			c0.4-0.631,0.96-1.119,1.68-1.471c0.721-0.349,1.521-0.519,2.4-0.519c1.55,0,2.71,0.37,3.491,1.12
			c0.779,0.75,1.169,1.938,1.169,3.579v8.381h-1.94V110.979z"/>
		<path id="o" fill="#FFFFFF" d="M280.71,104.55c0,2.091-0.53,3.73-1.58,4.9s-2.51,1.76-4.37,1.76c-1.15,0-2.17-0.27-3.06-0.81
			c-0.891-0.54-1.58-1.311-2.061-2.32c-0.479-1.009-0.729-2.189-0.729-3.54c0-2.09,0.52-3.719,1.57-4.89
			c1.05-1.17,2.5-1.75,4.359-1.75c1.8,0,3.22,0.6,4.28,1.79C280.18,100.88,280.71,102.51,280.71,104.55 M270.92,104.55
			c0,1.641,0.33,2.891,0.979,3.75c0.65,0.86,1.62,1.29,2.891,1.29s2.24-0.43,2.9-1.279c0.659-0.851,0.989-2.11,0.989-3.761
			c0-1.63-0.33-2.869-0.989-3.72c-0.66-0.85-1.631-1.27-2.921-1.27c-1.27,0-2.229,0.42-2.88,1.25
			C271.24,101.641,270.92,102.891,270.92,104.55"/>
		<rect id="l" x="284.12" y="92.751" fill="#FFFFFF" width="1.95" height="18.229"/>
		<path id="o_1_" fill="#FFFFFF" d="M301.28,104.55c0,2.091-0.53,3.73-1.58,4.9s-2.51,1.76-4.37,1.76c-1.15,0-2.17-0.27-3.061-0.81
			c-0.89-0.54-1.579-1.311-2.06-2.32c-0.479-1.009-0.729-2.189-0.729-3.54c0-2.09,0.52-3.719,1.569-4.89
			c1.05-1.17,2.5-1.75,4.36-1.75c1.8,0,3.22,0.6,4.28,1.79C300.75,100.88,301.28,102.51,301.28,104.55 M291.49,104.55
			c0,1.641,0.33,2.891,0.979,3.75c0.651,0.86,1.621,1.29,2.892,1.29c1.27,0,2.239-0.43,2.899-1.279c0.66-0.851,0.99-2.11,0.99-3.761
			c0-1.63-0.33-2.869-0.99-3.72c-0.66-0.85-1.63-1.27-2.92-1.27c-1.27,0-2.229,0.42-2.88,1.25S291.49,102.891,291.49,104.55"/>
		<path id="g" fill="#FFFFFF" d="M315.2,98.141v1.229l-2.38,0.279c0.22,0.271,0.41,0.631,0.59,1.071
			c0.18,0.439,0.26,0.939,0.26,1.489c0,1.261-0.43,2.261-1.29,3.011s-2.04,1.12-3.54,1.12c-0.38,0-0.74-0.03-1.08-0.091
			c-0.83,0.439-1.24,0.99-1.24,1.649c0,0.351,0.141,0.611,0.431,0.781s0.79,0.25,1.49,0.25h2.27c1.39,0,2.46,0.29,3.21,0.88
			c0.75,0.589,1.12,1.439,1.12,2.549c0,1.421-0.57,2.511-1.71,3.25c-1.14,0.741-2.799,1.12-4.99,1.12c-1.68,0-2.97-0.309-3.88-0.939
			c-0.91-0.63-1.37-1.51-1.37-2.649c0-0.781,0.25-1.46,0.75-2.031c0.5-0.569,1.2-0.96,2.11-1.159c-0.33-0.149-0.601-0.38-0.83-0.689
			c-0.23-0.311-0.33-0.681-0.33-1.09c0-0.471,0.12-0.881,0.38-1.231c0.26-0.349,0.64-0.689,1.18-1.019
			c-0.659-0.271-1.21-0.74-1.619-1.391c-0.41-0.649-0.631-1.41-0.631-2.25c0-1.41,0.42-2.49,1.271-3.25
			c0.85-0.76,2.04-1.14,3.59-1.14c0.67,0,1.28,0.08,1.821,0.229h4.419V98.141z M304.96,113.141c0,0.7,0.29,1.219,0.88,1.58
			c0.59,0.359,1.43,0.54,2.521,0.54c1.63,0,2.84-0.24,3.63-0.73c0.791-0.49,1.18-1.149,1.18-1.99c0-0.699-0.21-1.181-0.639-1.449
			c-0.432-0.271-1.241-0.401-2.432-0.401h-2.33c-0.88,0-1.569,0.21-2.06,0.63C305.22,111.74,304.96,112.351,304.96,113.141
			 M306.01,102.25c0,0.899,0.25,1.58,0.76,2.04c0.512,0.46,1.211,0.689,2.12,0.689c1.9,0,2.851-0.919,2.851-2.77
			c0-1.93-0.959-2.89-2.88-2.89c-0.91,0-1.62,0.25-2.11,0.74S306.01,101.29,306.01,102.25"/>
		<path id="y" fill="#FFFFFF" d="M315.8,98.14h2.09l2.811,7.32c0.62,1.67,1,2.88,1.149,3.62h0.091c0.1-0.4,0.31-1.08,0.64-2.04
			s1.38-3.93,3.18-8.9h2.09l-5.52,14.62c-0.551,1.45-1.19,2.471-1.92,3.08c-0.73,0.611-1.631,0.91-2.69,0.91
			c-0.59,0-1.18-0.07-1.76-0.2v-1.559c0.43,0.089,0.91,0.139,1.44,0.139c1.34,0,2.29-0.75,2.859-2.25l0.71-1.83L315.8,98.14z"/>
	</g>
</g>
<g id="logo-main">
	<g id="logo-symbol">
		<path id="symbol-outer" fill="#FFFFFF" d="M33.08,0H11.02C4.94,0,0,4.94,0,11.02v22.06C0,39.17,4.94,44.1,11.02,44.1h22.06
			c6.09,0,11.02-4.94,11.02-11.02V11.02C44.1,4.94,39.17,0,33.08,0 M33.08,33.08H11.02V11.02h22.06V33.08z"/>
		<path id="symbol-inner" fill="#FFFFFF" d="M21.98,12.93c-5,0-9.05,4.05-9.05,9.05s4.05,9.05,9.05,9.05s9.05-4.05,9.05-9.05
			C31.02,16.98,26.97,12.93,21.98,12.93"/>
	</g>
	<g id="NTNU-name">
		<polygon id="N_2_" fill="#FFFFFF" points="74.96,0.05 96.44,31.27 96.44,7.25 96.38,1.54 89.93,1.54 89.93,0.05 103.77,0.05 
			103.77,1.54 98.43,1.54 98.37,7.25 98.37,44.43 97.38,44.74 68.56,2.84 68.56,36.49 68.62,42.39 75.26,42.39 75.26,43.88 
			60.93,43.88 60.93,42.39 66.64,42.39 66.7,36.49 66.7,7.25 66.64,1.54 60.93,1.54 60.93,0.05 		"/>
		<path id="T" fill="#FFFFFF" d="M146.6,0.05v14.03h-1.86c-0.19-2.17-0.44-4.9-2.36-8.13c-2.23-3.79-5.28-3.97-8.26-4.1h-3.48
			l-0.06,5.59v28.62l0.06,6.33h6.71v1.49h-20.36v-1.49h6.7l0.06-6.33V7.43l-0.06-5.59h-2.86c-3.6,0.06-6.33,0.06-8.94,4.22
			c-2.05,3.29-2.23,5.9-2.36,8.01h-1.8V0.05H146.6z"/>
		<polygon id="N_1_" fill="#FFFFFF" points="164.23,0.05 185.71,31.27 185.71,7.25 185.65,1.54 179.19,1.54 179.19,0.05 
			193.03,0.05 193.03,1.54 187.69,1.54 187.63,7.25 187.63,44.43 186.64,44.74 157.84,2.83 157.84,36.48 157.9,42.38 164.54,42.38 
			164.54,43.87 150.2,43.87 150.2,42.38 155.91,42.38 155.97,36.48 155.97,7.25 155.91,1.54 150.2,1.54 150.2,0.05 		"/>
		<path id="U_1_" fill="#FFFFFF" d="M217.13,0.05v1.49h-6.149l-0.061,5.28v23.72c0.061,6.15,0.19,11.98,11.731,11.98
			c11.669,0,12.408-5.09,12.599-10.62V6.81l-0.06-5.28h-6.271V0.05h13.71v1.49h-5.399l-0.061,5.28v22.6
			c-0.06,8.13-0.13,15.08-16.2,15.08c-2.29,0-7.76-0.25-11.229-1.68c-5.53-2.36-5.65-7.2-5.71-13.16V6.81l-0.061-5.28h-5.34V0.05
			H217.13z"/>
	</g>
</g>
</svg>
